<svg xmlns="http://www.w3.org/2000/svg" width="1280" height="719" viewBox="0 0 1280 719">
  <defs>
    <style>
      .cls-1 {
        fill-rule: evenodd;
      }
    </style>
  </defs>
  <path id="Color_Fill_1" data-name="Color Fill 1" class="cls-1" d="M0,0H1280V359l-102,9c-6.67-23.861-33.57-22.1-57-30-39.37-13.273-109.12-16.4-156-6l-35,1c-18.859,4.576-34,14.94-52,19q1,5,2,10c-29.146-.091-50.568,5.724-75,10-26.313,4.605-56.119.969-84,1l-35,2c-54.959-8.482-121.864,4.866-179-4-24.62-3.821-54.012-9.356-82-5-33.938,5.282-69.377,3.9-101,9H285c-19.358,3-48.589,4.2-69,1-26.452-4.151-60.06.516-81,4l-85,2c-10.229,1.664-42.947,6.625-49-1ZM885,358l-3,7-2-2v-1Z"/>
</svg>
